<svg width="115" height="55" viewBox="0 0 115 55" fill="none" xmlns="http://www.w3.org/2000/svg">
<path d="M21.9362 30.0832H16.2897C15.5236 30.0832 13.9412 29.6135 13.7413 27.7347C13.5415 25.8558 15.357 25.0197 16.2897 24.8365H24.4846C25.334 24.7865 27.073 24.1769 27.2328 22.1382C27.3927 20.0995 25.4673 19.5232 24.4846 19.4898H11.8925C10.9931 19.5398 9.16423 19.0901 9.0443 16.8915C8.92438 14.6929 10.8931 14.0433 11.8925 13.9933H29.9811C30.664 13.9433 32.0898 13.4137 32.3297 11.6947C32.5695 9.97583 30.8639 8.91316 29.9811 8.59669H21.9362C20.7869 8.64666 18.4184 8.04704 18.1386 5.2488C17.8588 2.45056 19.9208 1.15137 20.9868 0.851562H54.5657C56.0647 0.851562 60.9617 2.55049 62.8105 3.79971C64.6593 5.04892 70.9554 8.69663 74.0035 15.4424C77.0515 22.1882 78.4007 31.4323 73.104 40.7265C67.8074 50.0207 57.314 54.0681 51.3677 54.268C45.4214 54.4679 39.3752 54.0681 30.8806 47.4223C24.0848 42.1056 22.0861 33.6476 21.9362 30.0832Z" fill="white"/>
<circle cx="49.4691" cy="27.434" r="16.1898" fill="#4562B1"/>
<rect y="13.9434" width="7.29541" height="5.59648" rx="2.79824" fill="white"/>
<rect x="40.4429" y="14.459" width="47.8135" height="24.1902" fill="#4562B1"/>
<path d="M55.9262 35.8672H52.2127L45.5234 24.4482V35.8672H42.0517V18.521H45.7653L52.4546 29.9521V18.521H55.9262V35.8672ZM62.6276 35.8672H59.156V18.521H62.6276V35.8672ZM73.1394 35.8672H69.6798V21.9926H64.4663V18.521H78.3408V21.9926H73.1394V35.8672ZM83.6511 21.9926V28.936H87.1228C87.5986 28.936 88.0462 28.8473 88.4655 28.6698C88.8848 28.4844 89.2518 28.2344 89.5663 27.9199C89.8808 27.6054 90.1267 27.2384 90.3042 26.8191C90.4896 26.3917 90.5824 25.9401 90.5824 25.4643C90.5824 24.9885 90.4896 24.5409 90.3042 24.1216C90.1267 23.6942 89.8808 23.3232 89.5663 23.0087C89.2518 22.6942 88.8848 22.4483 88.4655 22.2709C88.0462 22.0854 87.5986 21.9926 87.1228 21.9926H83.6511ZM83.6511 35.8672H80.1795V18.521H87.1228C87.7599 18.521 88.3728 18.6057 88.9615 18.775C89.5501 18.9363 90.0985 19.1701 90.6066 19.4766C91.1227 19.775 91.5904 20.1379 92.0097 20.5653C92.4372 20.9846 92.8 21.4523 93.0984 21.9684C93.4049 22.4846 93.6387 23.037 93.8 23.6256C93.9694 24.2143 94.054 24.8272 94.054 25.4643C94.054 26.0611 93.9774 26.6417 93.8242 27.2062C93.679 27.7707 93.4653 28.3069 93.1831 28.815C92.9089 29.323 92.5702 29.7908 92.167 30.2182C91.7638 30.6456 91.3122 31.0165 90.8122 31.331L92.7355 35.8672H89.0461L87.5341 32.3713L83.6511 32.3955V35.8672ZM113.336 27.2667C113.336 28.0892 113.227 28.8835 113.009 29.6496C112.799 30.4077 112.501 31.1214 112.114 31.7907C111.727 32.452 111.259 33.0568 110.711 33.6052C110.162 34.1535 109.558 34.6253 108.896 35.0204C108.235 35.4075 107.521 35.7059 106.755 35.9156C105.989 36.1333 105.195 36.2422 104.372 36.2422C103.55 36.2422 102.755 36.1333 101.989 35.9156C101.231 35.7059 100.518 35.4075 99.8482 35.0204C99.1869 34.6253 98.5821 34.1535 98.0337 33.6052C97.4854 33.0568 97.0136 32.452 96.6185 31.7907C96.2314 31.1214 95.929 30.4077 95.7112 29.6496C95.5016 28.8835 95.3967 28.0892 95.3967 27.2667C95.3967 26.4441 95.5016 25.6498 95.7112 24.8837C95.929 24.1176 96.2314 23.4039 96.6185 22.7426C97.0136 22.0813 97.4854 21.4765 98.0337 20.9282C98.5821 20.3798 99.1869 19.9121 99.8482 19.525C100.518 19.1379 101.231 18.8395 101.989 18.6298C102.755 18.4121 103.55 18.3032 104.372 18.3032C105.195 18.3032 105.989 18.4121 106.755 18.6298C107.521 18.8395 108.235 19.1379 108.896 19.525C109.558 19.9121 110.162 20.3798 110.711 20.9282C111.259 21.4765 111.727 22.0813 112.114 22.7426C112.501 23.4039 112.799 24.1176 113.009 24.8837C113.227 25.6498 113.336 26.4441 113.336 27.2667ZM109.888 27.2667C109.888 26.5086 109.743 25.7949 109.453 25.1256C109.162 24.4482 108.767 23.8635 108.267 23.3716C107.775 22.8716 107.191 22.4765 106.513 22.1862C105.844 21.8959 105.13 21.7507 104.372 21.7507C103.606 21.7507 102.888 21.8959 102.219 22.1862C101.55 22.4765 100.965 22.8716 100.465 23.3716C99.9651 23.8635 99.57 24.4482 99.2797 25.1256C98.9894 25.7949 98.8442 26.5086 98.8442 27.2667C98.8442 28.0247 98.9894 28.7384 99.2797 29.4077C99.57 30.069 99.9651 30.6496 100.465 31.1496C100.965 31.6496 101.55 32.0447 102.219 32.335C102.888 32.6254 103.606 32.7705 104.372 32.7705C105.13 32.7705 105.844 32.6254 106.513 32.335C107.191 32.0447 107.775 31.6496 108.267 31.1496C108.767 30.6496 109.162 30.069 109.453 29.4077C109.743 28.7384 109.888 28.0247 109.888 27.2667Z" fill="white"/>
<path d="M100.64 28.1789C101.005 29.5899 102.234 30.483 102.803 30.7532C101.045 30.2156 99.8843 28.3385 99.8192 26.8918C99.7541 25.4451 100.437 23.9395 101.444 23.1773C102.452 22.4151 103.5 22.1023 105.199 22.3605C106.558 22.5672 107.539 23.6897 107.859 24.2251C107.644 23.9045 106.9 23.2025 105.642 22.959C104.069 22.6545 102.818 23.0052 101.749 24.0739C100.68 25.1427 100.185 26.4151 100.64 28.1789Z" fill="white"/>
<rect x="48.9248" y="36.5078" width="10.7833" height="1.54213" transform="rotate(-39.9041 48.9248 36.5078)" fill="#4562B1"/>
</svg>
